<svg width="82" height="73" viewBox="0 0 82 73" fill="none" xmlns="http://www.w3.org/2000/svg">
<path d="M81.337 36.6169C81.337 31.245 74.5945 26.1541 64.2571 22.9971C66.6426 12.4847 65.5824 4.1211 60.9107 1.44343C59.8339 0.815331 58.5748 0.517811 57.1998 0.517811V4.20375C57.9619 4.20375 58.5748 4.35251 59.0884 4.6335C61.3414 5.92275 62.3188 10.8318 61.5568 17.1458C61.3745 18.6996 61.0763 20.3359 60.7119 22.0053C57.4649 21.212 53.9197 20.6004 50.1923 20.2037C47.9558 17.1459 45.6365 14.369 43.3007 11.9393C48.7013 6.93101 53.7706 4.18722 57.2164 4.18722V0.501282C52.6607 0.501282 46.6967 3.74094 40.6666 9.36076C34.6364 3.774 28.6726 0.567398 24.1168 0.567398V4.25333C27.5461 4.25333 32.6319 6.9806 38.0326 11.9558C35.7133 14.3855 33.394 17.1459 31.1907 20.2037C27.4467 20.6004 23.9015 21.212 20.6545 22.0219C20.2735 20.369 19.9918 18.7657 19.793 17.2285C19.0144 10.9145 19.9752 6.0054 22.2117 4.69962C22.7087 4.4021 23.3548 4.26987 24.1168 4.26987V0.583927C22.7252 0.583927 21.4662 0.881447 20.3728 1.50954C15.7177 4.18722 14.674 12.5343 17.0761 23.0136C6.77188 26.1871 0.0625 31.2615 0.0625 36.6169C0.0625 41.9887 6.805 47.0796 17.1424 50.2366C14.7568 60.749 15.8171 69.1126 20.4888 71.7903C21.5656 72.4184 22.8246 72.7159 24.2162 72.7159C28.772 72.7159 34.7359 69.4762 40.766 63.8564C46.7962 69.4432 52.76 72.6498 57.3158 72.6498C58.7073 72.6498 59.9664 72.3523 61.0598 71.7242C65.7149 69.0465 66.7586 60.6994 64.3565 50.2201C74.6276 47.0631 81.337 41.9722 81.337 36.6169ZM59.7676 25.5921C59.1547 27.7243 58.3926 29.9227 57.5311 32.121C56.8519 30.7987 56.1396 29.4764 55.361 28.1541C54.5989 26.8318 53.7872 25.5425 52.9754 24.2863C55.3278 24.6334 57.5974 25.0632 59.7676 25.5921ZM52.1802 43.1953C50.888 45.4267 49.5628 47.5424 48.1877 49.5094C45.7194 49.7243 43.2178 49.84 40.6997 49.84C38.1982 49.84 35.6967 49.7242 33.2449 49.5259C31.8699 47.559 30.528 45.4598 29.2358 43.2449C27.9768 41.0797 26.8337 38.8813 25.79 36.6664C26.8172 34.4516 27.9768 32.2367 29.2193 30.0714C30.5114 27.84 31.8368 25.7243 33.2118 23.7574C35.6801 23.5425 38.1817 23.4268 40.6997 23.4268C43.2013 23.4268 45.7028 23.5425 48.1546 23.7409C49.5296 25.7078 50.8715 27.807 52.1637 30.0218C53.4227 32.1871 54.5658 34.3855 55.6094 36.6003C54.5658 38.8152 53.4227 41.0301 52.1802 43.1953ZM57.5311 41.0466C58.4257 43.2615 59.1878 45.4763 59.8173 47.6251C57.6471 48.154 55.361 48.6003 52.992 48.9474C53.8037 47.6747 54.6155 46.3689 55.3775 45.0301C56.1396 43.7077 56.8519 42.3689 57.5311 41.0466ZM40.7329 58.6829C39.1922 57.0961 37.6515 55.3275 36.1274 53.3937C37.6184 53.4598 39.1425 53.5094 40.6832 53.5094C42.2404 53.5094 43.7811 53.4763 45.2886 53.3937C43.7976 55.3275 42.257 57.0961 40.7329 58.6829ZM28.4075 48.9474C26.0551 48.6003 23.7855 48.1705 21.6153 47.6416C22.2283 45.5094 22.9903 43.311 23.8518 41.1127C24.531 42.435 25.2434 43.7573 26.022 45.0796C26.8006 46.402 27.5958 47.6912 28.4075 48.9474ZM40.6501 14.5508C42.1907 16.1376 43.7314 17.9062 45.2555 19.8401C43.7645 19.7739 42.2404 19.7244 40.6997 19.7244C39.1425 19.7244 37.6018 19.7574 36.0943 19.8401C37.5853 17.9062 39.126 16.1376 40.6501 14.5508ZM28.391 24.2863C27.5792 25.559 26.7675 26.8648 26.0054 28.2037C25.2433 29.526 24.531 30.8483 23.8518 32.1706C22.9572 29.9557 22.1951 27.7409 21.5656 25.5921C23.7358 25.0797 26.022 24.6334 28.391 24.2863ZM13.3984 44.9805C7.53392 42.4846 3.74023 39.2119 3.74023 36.6169C3.74023 34.0218 7.53392 30.7326 13.3984 28.2533C14.8231 27.6417 16.3803 27.0962 17.9873 26.5838C18.9316 29.8235 20.1741 33.1954 21.7147 36.6499C20.1906 40.0879 18.9647 43.4433 18.037 46.6664C16.3969 46.154 14.8397 45.592 13.3984 44.9805ZM22.3111 68.6002C20.0581 67.311 19.0807 62.4019 19.8427 56.0879C20.0249 54.5341 20.3231 52.8978 20.6876 51.2284C23.9346 52.0218 27.4798 52.6333 31.2072 53.03C33.4437 56.0879 35.763 58.8647 38.0988 61.2945C32.6982 66.3027 27.6289 69.0465 24.1831 69.0465C23.4376 69.03 22.8081 68.8812 22.3111 68.6002ZM61.6065 56.0052C62.3851 62.3192 61.4242 67.2283 59.1878 68.5341C58.6908 68.8316 58.0447 68.9639 57.2827 68.9639C53.8534 68.9639 48.7675 66.2366 43.3669 61.2614C45.6862 58.8317 48.0055 56.0713 50.2088 53.0135C53.9528 52.6168 57.498 52.0052 60.745 51.1953C61.1261 52.8647 61.4242 54.468 61.6065 56.0052ZM67.9845 44.9805C66.5598 45.592 65.0026 46.1375 63.3956 46.6499C62.4513 43.4102 61.2089 40.0383 59.6682 36.5838C61.1923 33.1458 62.4182 29.7904 63.3459 26.5673C64.986 27.0797 66.5432 27.6417 68.0011 28.2533C73.8656 30.7491 77.6592 34.0218 77.6592 36.6169C77.6427 39.2119 73.849 42.5011 67.9845 44.9805Z" fill="#61DAFB"/>
<path d="M40.6832 44.1706C44.8644 44.1706 48.254 40.7886 48.254 36.6169C48.254 32.4451 44.8644 29.0632 40.6832 29.0632C36.502 29.0632 33.1124 32.4451 33.1124 36.6169C33.1124 40.7886 36.502 44.1706 40.6832 44.1706Z" fill="#61DAFB"/>
</svg>

