<svg width="139" height="139" viewBox="0 0 139 139" fill="none" xmlns="http://www.w3.org/2000/svg">
<path fill-rule="evenodd" clip-rule="evenodd" d="M132.207 64.1683L138.045 67.7816C138.634 68.1429 138.996 68.7933 138.996 69.4937C138.996 70.1886 138.634 70.8334 138.045 71.2003L132.207 74.8136C132.157 75.3807 132.101 75.9477 132.04 76.5147L137.055 81.1953C137.567 81.6678 137.795 82.3682 137.656 83.052C137.522 83.7358 137.039 84.2972 136.388 84.5418L129.977 86.9377C129.816 87.4936 129.649 88.0439 129.476 88.5943L133.474 94.1477C133.886 94.7091 133.969 95.4429 133.702 96.0878C133.435 96.727 132.857 97.1884 132.168 97.2996L125.406 98.4003C125.145 98.9117 124.872 99.412 124.594 99.9179L127.436 106.149C127.73 106.783 127.669 107.523 127.28 108.101C126.896 108.679 126.235 109.018 125.539 108.99L118.678 108.751C118.328 109.196 117.966 109.635 117.599 110.069L119.173 116.75C119.334 117.429 119.134 118.14 118.639 118.629C118.15 119.124 117.438 119.324 116.759 119.163L110.076 117.59C109.642 117.957 109.203 118.312 108.758 118.668L108.997 125.528C109.008 125.845 108.947 126.156 108.814 126.44C108.352 127.446 107.162 127.885 106.156 127.424L99.9223 124.583C99.818 124.639 99.714 124.695 99.61 124.751C99.2096 124.967 98.8104 125.183 98.4042 125.395L97.3033 132.149C97.2532 132.454 97.1364 132.749 96.9529 132.999C96.3079 133.9 95.0513 134.1 94.1505 133.455L88.5955 129.453C88.045 129.63 87.4945 129.797 86.9385 129.958L84.5419 136.368C84.2972 137.024 83.7356 137.502 83.0517 137.635C82.3733 137.774 81.6671 137.546 81.1945 137.035L76.5181 132.021C75.9509 132.088 75.3838 132.143 74.8166 132.193L71.2023 138.03C70.8353 138.619 70.1902 138.981 69.4952 138.981C68.8001 138.981 68.1551 138.619 67.7881 138.03L64.1738 132.193C64.0318 132.179 63.8898 132.166 63.7478 132.152C63.3227 132.111 62.8974 132.071 62.4723 132.021L57.7903 137.035C57.3177 137.546 56.617 137.774 55.9331 137.635C55.2492 137.502 54.6876 137.018 54.4429 136.368L52.0463 129.958C51.4903 129.797 50.9398 129.625 50.3893 129.453L44.8344 133.455C44.2672 133.861 43.5332 133.944 42.8882 133.677C42.2487 133.411 41.7872 132.832 41.676 132.143L40.575 125.389C40.0634 125.128 39.5574 124.855 39.057 124.577L32.8237 127.418C32.5401 127.546 32.2287 127.607 31.9173 127.596C30.8052 127.551 29.9433 126.623 29.9822 125.517L30.2213 118.657C29.7765 118.307 29.3372 117.946 28.9035 117.579L22.2198 119.152C21.547 119.313 20.8297 119.113 20.3403 118.618C19.851 118.129 19.6453 117.417 19.8065 116.739L21.3968 110.074C21.0298 109.64 20.6684 109.201 20.3125 108.757L13.4564 108.996C12.7614 109.023 12.0997 108.684 11.716 108.106C11.3323 107.528 11.2711 106.789 11.5603 106.155L14.4017 99.9234C14.1237 99.4231 13.8568 98.9173 13.5899 98.4058L6.82831 97.3052C6.51692 97.2551 6.22777 97.1328 5.97198 96.9494C5.07674 96.299 4.871 95.0482 5.52158 94.1477L9.51959 88.5943C9.34722 88.0439 9.18039 87.4936 9.01913 86.9377L2.60788 84.5418C2.31317 84.4362 2.05183 84.2583 1.84053 84.0304C1.0843 83.2188 1.12878 81.9513 1.94061 81.1953L6.95619 76.5147C6.89503 75.9477 6.83943 75.3807 6.78938 74.8136L0.950851 71.2003C0.361438 70.839 0 70.1886 0 69.4937C0 68.7988 0.361438 68.154 0.950851 67.7871L6.78938 64.1738C6.83943 63.6068 6.89503 63.0398 6.95619 62.4728L1.94061 57.7977C1.71263 57.5865 1.54026 57.3252 1.42905 57.0361C1.03425 55.9966 1.56251 54.8348 2.60233 54.4456L9.01358 52.0497C9.16927 51.4938 9.34165 50.9435 9.51402 50.3932L5.51602 44.8398C5.33809 44.5896 5.21576 44.295 5.16571 43.9893C4.98221 42.8941 5.72732 41.8602 6.82274 41.6823L13.5843 40.5816C13.8457 40.0702 14.1181 39.5643 14.3961 39.064L11.5547 32.8324C11.2656 32.1987 11.3212 31.4594 11.7104 30.8812C12.0997 30.3087 12.7558 29.9696 13.4509 29.9918L20.3125 30.2309C20.6628 29.7917 21.0243 29.3525 21.3913 28.9189L19.8176 22.2371C19.6564 21.5644 19.8566 20.8473 20.3514 20.3581C20.8408 19.869 21.5525 19.6633 22.2309 19.8245L28.9146 21.3977C29.3483 21.0308 29.7876 20.6695 30.2325 20.3137L29.9933 13.4539C29.9655 12.7591 30.3047 12.0975 30.883 11.714C31.4613 11.3304 32.1953 11.2693 32.8292 11.5583L39.0626 14.399C39.563 14.121 40.069 13.8542 40.5806 13.5873L41.6815 6.82766C41.7928 6.13835 42.2543 5.56022 42.8937 5.29339C43.5388 5.02656 44.2727 5.1155 44.8399 5.5213L50.3948 9.51819C50.9398 9.34586 51.4903 9.1791 52.0463 9.01789L54.4429 2.60841C54.5486 2.31379 54.7265 2.04696 54.9545 1.83572C55.7663 1.0797 57.0341 1.12417 57.7903 1.93578L62.4723 6.95551C63.0394 6.88881 63.6065 6.83878 64.1737 6.78876L67.7881 0.951845C67.9494 0.685015 68.1718 0.462657 68.4387 0.301448C69.3784 -0.282242 70.6184 0.00682324 71.2023 0.951845L74.8166 6.78874C75.3838 6.83878 75.9509 6.89437 76.5181 6.95551L81.1945 1.93578C81.6671 1.42992 82.3678 1.202 83.0517 1.33541C83.7356 1.46883 84.2972 1.95246 84.5419 2.60285L86.9385 9.01233C87.4945 9.17354 88.045 9.3403 88.59 9.51263L94.1505 5.51575C94.4062 5.33786 94.6954 5.21556 95.0012 5.16553C96.0966 4.98209 97.1309 5.72699 97.3088 6.8221L98.4098 13.5818C98.9214 13.8431 99.4274 14.1154 99.9278 14.3934L106.156 11.5528C106.789 11.2637 107.529 11.3193 108.107 11.7084C108.686 12.092 109.025 12.7535 108.997 13.4484L108.758 20.3081C109.203 20.6639 109.642 21.0252 110.076 21.3921L116.759 19.8189C117.438 19.6577 118.15 19.8578 118.639 20.3526C119.128 20.8418 119.334 21.5533 119.173 22.2315L117.594 28.9134C117.961 29.3414 118.322 29.7806 118.678 30.2253L125.539 29.9863C126.235 29.9585 126.896 30.2976 127.28 30.8757C127.669 31.4538 127.725 32.1932 127.436 32.8269L124.594 39.0585C124.872 39.5588 125.145 40.0646 125.406 40.5761L132.168 41.6767C132.473 41.7268 132.763 41.8491 133.018 42.0325C133.919 42.6829 134.125 43.9337 133.474 44.8342L129.476 50.3876C129.649 50.9379 129.816 51.4883 129.977 52.0442L136.388 54.4401C137.044 54.6847 137.522 55.2461 137.656 55.9299C137.795 56.6136 137.567 57.3196 137.055 57.7921L132.04 62.4672C132.101 63.0342 132.157 63.6012 132.207 64.1683ZM95.813 111.269C95.3348 113.504 96.7528 115.7 98.9825 116.178C101.212 116.656 103.409 115.233 103.881 113.004C104.36 110.775 102.942 108.573 100.712 108.095C98.4821 107.617 96.2913 109.035 95.813 111.269ZM92.5323 105.66C92.9716 103.626 94.9734 102.336 97.003 102.77L105.733 104.649C107.435 102.925 109.008 101.08 110.443 99.1285C110.43 99.1307 110.416 99.1328 110.403 99.1349C112.991 95.8691 116.011 91.5929 117.565 87.7336C119.296 83.432 119.93 77.5977 120.13 72.8124H120.174C120.268 71.5617 120.313 70.3053 120.313 69.0379C120.313 67.4531 120.241 65.8922 120.097 64.3464C120.091 64.2392 120.087 64.1832 120.087 64.1832L120.081 64.1821C120.075 64.1182 120.069 64.0542 120.062 63.9904L110.687 59.8267C108.791 58.9873 107.935 56.7582 108.775 54.857L113.646 43.8558C106.486 31.3303 94.1488 22.1498 79.5506 19.22L79.1182 18.9067L79.0379 19.1198C78.9765 19.1082 78.915 19.0966 78.8535 19.0851L71.7416 25.8837L71.7361 25.8893C70.2347 27.3235 67.8548 27.2624 66.4202 25.7615L60.3764 19.4233L60.2095 18.9067C59.5703 19.0848 58.9425 19.2673 58.3261 19.454C47.8354 21.8057 38.5653 27.4035 31.6337 35.1394H31.7388C26.5466 40.9683 25.3776 45.7741 25.3776 45.7741L28.529 51.9104L28.5704 51.9642L29.7598 54.6569C30.605 56.558 29.7487 58.7816 27.847 59.6266L20.341 62.9632L18.7429 63.5198C18.7429 63.5198 18.7173 64.5814 18.7401 66.2907C18.6916 67.2 18.6666 68.1162 18.6666 69.0379C18.6622 72.8199 19.0801 76.5841 19.9117 80.2672C20.2482 82.1566 20.6792 83.9753 21.2309 85.5776C24.8282 96.026 32.8415 104.484 32.8415 104.484L33.0211 104.399L41.5314 102.569C43.5665 102.136 45.5683 103.431 46.002 105.466L48.0706 115.133C54.5819 118.157 61.8328 119.847 69.4841 119.847C76.963 119.847 84.0637 118.235 90.4583 115.333L92.5323 105.666V105.66ZM34.6531 112.804C35.1313 115.038 37.3277 116.461 39.5574 115.978C41.7816 115.5 43.1996 113.298 42.7269 111.069C42.2487 108.84 40.0523 107.417 37.8225 107.895C35.5928 108.373 34.1749 110.569 34.6531 112.804ZM21.6971 57.5587C23.7823 56.6359 24.722 54.1899 23.799 52.1053C22.8759 50.0152 20.4349 49.0757 18.3552 50.004C16.27 50.9324 15.3303 53.3728 16.2534 55.4574C17.1764 57.542 19.6119 58.487 21.6971 57.5587ZM72.2588 13.5651C70.6796 11.9197 68.0661 11.853 66.4202 13.4317C64.7743 15.0049 64.7132 17.6176 66.2812 19.2742C67.8604 20.9252 70.4738 20.9863 72.1198 19.4076C73.7712 17.8344 73.8324 15.2161 72.2588 13.5651ZM120.179 50.1986C118.094 49.2814 115.664 50.2208 114.741 52.3055C113.818 54.3901 114.758 56.836 116.843 57.7588C116.843 57.7643 116.848 57.7643 116.848 57.7643C118.934 58.6816 121.369 57.7421 122.287 55.6575C123.21 53.5729 122.27 51.127 120.185 50.2042C120.185 50.1986 120.179 50.1986 120.179 50.1986Z" fill="black"/>
</svg>

