<svg fill="none" height="139" viewBox="0 0 139 139" width="139" xmlns="http://www.w3.org/2000/svg"><path d="m109.274 69.6169c0-5.3719-6.742-10.4628-17.0794-13.6198 2.3855-10.5124 1.3253-18.876-3.3464-21.5537-1.0768-.6281-2.3359-.9256-3.7109-.9256v3.686c.762 0 1.375.1487 1.8886.4297 2.253 1.2893 3.2304 6.1983 2.4684 12.5123-.1823 1.5538-.4805 3.1901-.8449 4.8595-3.247-.7933-6.7922-1.4049-10.5196-1.8016-2.2365-3.0578-4.5558-5.8347-6.8916-8.2644 5.4006-5.0083 10.4699-7.7521 13.9157-7.7521v-3.6859c-4.5557 0-10.5197 3.2396-16.5498 8.8595-6.0302-5.5868-11.994-8.7934-16.5498-8.7934v3.6859c3.4293 0 8.5151 2.7273 13.9158 7.7025-2.3193 2.4297-4.6386 5.1901-6.8419 8.2479-3.744.3967-7.2892 1.0083-10.5362 1.8182-.381-1.6529-.6627-3.2562-.8615-4.7934-.7786-6.314.1822-11.2231 2.4187-12.5289.497-.2975 1.1431-.4297 1.9051-.4297v-3.686c-1.3916 0-2.6506.2975-3.744.9256-4.6551 2.6777-5.6988 11.0248-3.2967 21.5041-10.3042 3.1735-17.0136 8.2479-17.0136 13.6033 0 5.3718 6.7425 10.4627 17.0799 13.6197-2.3856 10.5124-1.3253 18.8764 3.3464 21.5534 1.0768.628 2.3358.926 3.7274.926 4.5558 0 10.5197-3.24 16.5498-8.8596 6.0302 5.5866 11.994 8.7936 16.5498 8.7936 1.3915 0 2.6506-.298 3.744-.926 4.6551-2.677 5.6988-11.0246 3.2967-21.5039 10.271-3.157 16.98-8.2479 16.98-13.6032zm-21.5689-11.0248c-.6129 2.1322-1.375 4.3306-2.2365 6.5289-.6792-1.3223-1.3915-2.6446-2.1701-3.9669-.7621-1.3223-1.5738-2.6116-2.3856-3.8678 2.3524.3471 4.622.7769 6.7922 1.3058zm-7.5874 17.6032c-1.2922 2.2314-2.6174 4.3471-3.9925 6.3141-2.4683.2149-4.9699.3306-7.488.3306-2.5015 0-5.003-.1158-7.4548-.3141-1.375-1.9669-2.7169-4.0661-4.0091-6.281-1.259-2.1652-2.4021-4.3636-3.4458-6.5785 1.0272-2.2148 2.1868-4.4297 3.4293-6.595 1.2921-2.2314 2.6175-4.3471 3.9925-6.314 2.4683-.2149 4.9699-.3306 7.4879-.3306 2.5016 0 5.0031.1157 7.4549.3141 1.375 1.9669 2.7169 4.0661 4.0091 6.2809 1.259 2.1653 2.4021 4.3637 3.4457 6.5785-1.0436 2.2149-2.1867 4.4298-3.4292 6.595zm5.3509-2.1487c.8946 2.2149 1.6567 4.4297 2.2862 6.5785-2.1702.5289-4.4563.9752-6.8253 1.3223.8117-1.2727 1.6235-2.5785 2.3855-3.9173.7621-1.3224 1.4744-2.6612 2.1536-3.9835zm-16.7982 17.6363c-1.5407-1.5868-3.0814-3.3554-4.6055-5.2892 1.491.0661 3.0151.1157 4.5558.1157 1.5572 0 3.0979-.0331 4.6054-.1157-1.491 1.9338-3.0316 3.7024-4.5557 5.2892zm-12.3254-9.7355c-2.3524-.3471-4.622-.7769-6.7922-1.3058.613-2.1322 1.375-4.3305 2.2365-6.5289.6792 1.3223 1.3916 2.6446 2.1702 3.9669.7786 1.3224 1.5738 2.6116 2.3855 3.8678zm12.2426-34.3966c1.5406 1.5868 3.0813 3.3554 4.6054 5.2893-1.491-.0662-3.0151-.1157-4.5558-.1157-1.5572 0-3.0979.033-4.6054.1157 1.491-1.9339 3.0316-3.7025 4.5558-5.2893zm-12.2591 9.7355c-.8118 1.2727-1.6235 2.5785-2.3856 3.9174-.7621 1.3223-1.4744 2.6446-2.1536 3.9669-.8946-2.2149-1.6567-4.4297-2.2862-6.5785 2.1702-.5124 4.4564-.9587 6.8254-1.3058zm-14.9926 20.6942c-5.8645-2.4959-9.6582-5.7686-9.6582-8.3636 0-2.5951 3.7937-5.8843 9.6582-8.3636 1.4247-.6116 2.9819-1.1571 4.5889-1.6695.9443 3.2397 2.1868 6.6116 3.7274 10.0661-1.5241 3.438-2.75 6.7934-3.6777 10.0165-1.6401-.5124-3.1973-1.0744-4.6386-1.6859zm8.9127 23.6195c-2.253-1.289-3.2304-6.1981-2.4684-12.5121.1822-1.5538.4804-3.1901.8449-4.8595 3.247.7934 6.7922 1.4049 10.5196 1.8016 2.2365 3.0579 4.5558 5.8347 6.8916 8.2645-5.4006 5.0082-10.4699 7.7525-13.9157 7.7525-.7455-.017-1.375-.166-1.872-.447zm39.2954-12.5948c.7786 6.314-.1823 11.2228-2.4187 12.5288-.497.298-1.1431.43-1.9051.43-3.4293 0-8.5152-2.7274-13.9158-7.7026 2.3193-2.4297 4.6386-5.1901 6.8419-8.2479 3.744-.3967 7.2892-1.0083 10.5362-1.8182.3811 1.6694.6792 3.2727.8615 4.8099zm6.378-11.0247c-1.4247.6115-2.9819 1.157-4.5889 1.6694-.9443-3.2397-2.1867-6.6116-3.7274-10.0661 1.5241-3.438 2.75-6.7934 3.6777-10.0165 1.6401.5124 3.1973 1.0744 4.6552 1.686 5.8644 2.4958 9.6584 5.7685 9.6584 8.3636-.017 2.595-3.811 5.8842-9.675 8.3636z" fill="#61dafb"/><path d="m68.6207 77.1706c4.1812 0 7.5708-3.3819 7.5708-7.5537s-3.3896-7.5537-7.5708-7.5537c-4.1813 0-7.5708 3.3819-7.5708 7.5537s3.3895 7.5537 7.5708 7.5537z" fill="#61dafb"/><path clip-rule="evenodd" d="m132.207 64.1683 5.838 3.6133c.589.3613.951 1.0117.951 1.7121 0 .6949-.362 1.3397-.951 1.7066l-5.838 3.6133c-.05.5671-.106 1.1341-.167 1.7011l5.015 4.6806c.512.4725.74 1.1729.601 1.8567-.134.6838-.617 1.2452-1.268 1.4898l-6.411 2.3959c-.161.5559-.328 1.1062-.501 1.6566l3.998 5.5534c.412.5614.495 1.2952.228 1.9401-.267.6392-.845 1.1006-1.534 1.2118l-6.762 1.1007c-.261.5114-.534 1.0117-.812 1.5176l2.842 6.2311c.294.634.233 1.374-.156 1.952-.384.578-1.045.917-1.741.889l-6.861-.239c-.35.445-.712.884-1.079 1.318l1.574 6.681c.161.679-.039 1.39-.534 1.879-.489.495-1.201.695-1.88.534l-6.683-1.573c-.434.367-.873.722-1.318 1.078l.239 6.86c.011.317-.05.628-.183.912-.462 1.006-1.652 1.445-2.658.984l-6.2337-2.841c-.1043.056-.2083.112-.3123.168-.4004.216-.7996.432-1.2058.644l-1.1009 6.754c-.0501.305-.1669.6-.3504.85-.645.901-1.9016 1.101-2.8024.456l-5.555-4.002c-.5505.177-1.101.344-1.657.505l-2.3966 6.41c-.2447.656-.8063 1.134-1.4902 1.267-.6784.139-1.3846-.089-1.8572-.6l-4.6764-5.014c-.5672.067-1.1343.122-1.7015.172l-3.6143 5.837c-.367.589-1.0121.951-1.7071.951-.6951 0-1.3401-.362-1.7071-.951l-3.6143-5.837c-.142-.014-.284-.027-.426-.041-.4251-.041-.8504-.081-1.2755-.131l-4.682 5.014c-.4726.511-1.1733.739-1.8572.6-.6839-.133-1.2455-.617-1.4902-1.267l-2.3966-6.41c-.556-.161-1.1065-.333-1.657-.505l-5.5549 4.002c-.5672.406-1.3012.489-1.9462.222-.6395-.266-1.101-.845-1.2122-1.534l-1.101-6.754c-.5116-.261-1.0176-.534-1.518-.812l-6.2333 2.841c-.2836.128-.595.189-.9064.178-1.1121-.045-1.974-.973-1.9351-2.079l.2391-6.86c-.4448-.35-.8841-.711-1.3178-1.078l-6.6837 1.573c-.6728.161-1.3901-.039-1.8795-.534-.4893-.489-.695-1.201-.5338-1.879l1.5903-6.665c-.367-.434-.7284-.873-1.0843-1.317l-6.8561.239c-.695.027-1.3567-.312-1.7404-.89s-.4449-1.317-.1557-1.951l2.8414-6.2316c-.278-.5003-.5449-1.0061-.8118-1.5176l-6.76159-1.1006c-.31139-.0501-.60054-.1724-.85633-.3558-.89524-.6504-1.10098-1.9012-.4504-2.8017l3.99801-5.5534c-.17237-.5504-.3392-1.1007-.50046-1.6566l-6.41125-2.3959c-.29471-.1056-.55605-.2835-.76735-.5114-.75623-.8116-.71175-2.0791.10008-2.8351l5.01558-4.6806c-.06116-.567-.11676-1.134-.16681-1.7011l-5.838529-3.6133c-.589413-.3613-.950851-1.0117-.950851-1.7066 0-.6948.361438-1.3397.950851-1.7066l5.838529-3.6133c.05005-.567.10565-1.134.16681-1.701l-5.01558-4.6751c-.22798-.2112-.40035-.4725-.51156-.7616-.3948-1.0395.13346-2.2013 1.17328-2.5905l6.41125-2.3959c.15569-.5559.32807-1.1062.50044-1.6565l-3.998-5.5534c-.17793-.2502-.30027-.5448-.35031-.8505-.1835-1.0952.56161-2.1291 1.65703-2.307l6.76156-1.1007c.2614-.5114.5338-1.0173.8118-1.5176l-2.8414-6.2316c-.2891-.6337-.2335-1.373.1557-1.9512.3893-.5725 1.0454-.9116 1.7405-.8894l6.8616.2391c.3503-.4392.7118-.8784 1.0788-1.312l-1.5737-6.6818c-.1612-.6727.039-1.3898.5338-1.879.4894-.4891 1.2011-.6948 1.8795-.5336l6.6837 1.5732c.4337-.3669.873-.7282 1.3179-1.084l-.2392-6.8598c-.0278-.6948.3114-1.3564.8897-1.7399.5783-.3836 1.3123-.4447 1.9462-.1557l6.2334 2.8407c.5004-.278 1.0064-.5448 1.518-.8117l1.1009-6.75964c.1113-.68931.5728-1.26744 1.2122-1.53427.6451-.26683 1.379-.17789 1.9462.22791l5.5549 3.99689c.545-.17233 1.0955-.33909 1.6515-.5003l2.3966-6.40948c.1056-.29462.2836-.56145.5116-.77269.8118-.75602 2.0796-.71155 2.8358.10006l4.682 5.01973c.5671-.0667 1.1342-.11673 1.7014-.16675l3.6144-5.836915c.1613-.26683.3837-.489188.6506-.650397.9397-.58369 2.1797-.29462476 2.7636.650397l3.6143 5.836895c.5672.05004 1.1343.10563 1.7015.16677l4.6764-5.01973c.4726-.50586 1.1733-.73378 1.8572-.60037.6839.13342 1.2455.61705 1.4902 1.26744l2.3966 6.40948c.556.16121 1.1065.32797 1.6515.5003l5.5605-3.99688c.2557-.17789.5449-.30019.8507-.35022 1.0954-.18344 2.1297.56146 2.3076 1.65657l1.101 6.7597c.5116.2613 1.0176.5336 1.518.8116l6.2282-2.8406c.633-.2891 1.373-.2335 1.951.1556.579.3836.918 1.0451.89 1.74l-.239 6.8597c.445.3558.884.7171 1.318 1.084l6.683-1.5732c.679-.1612 1.391.0389 1.88.5337.489.4892.695 1.2007.534 1.8789l-1.579 6.6819c.367.428.728.8672 1.084 1.3119l6.861-.239c.696-.0278 1.357.3113 1.741.8894.389.5781.445 1.3175.156 1.9512l-2.842 6.2316c.278.5003.551 1.0061.812 1.5176l6.762 1.1006c.305.0501.595.1724.85.3558.901.6504 1.107 1.9012.456 2.8017l-3.998 5.5534c.173.5503.34 1.1007.501 1.6566l6.411 2.3959c.656.2446 1.134.806 1.268 1.4898.139.6837-.089 1.3897-.601 1.8622l-5.015 4.6751c.061.567.117 1.134.167 1.7011zm-36.394 47.1007c-.4782 2.235.9398 4.431 3.1695 4.909 2.2295.478 4.4265-.945 4.8985-3.174.479-2.229-.939-4.431-3.169-4.909-2.2299-.478-4.4207.94-4.899 3.174zm-3.2807-5.609c.4393-2.034 2.4411-3.324 4.4707-2.89l8.73 1.879c1.702-1.724 3.275-3.569 4.71-5.5205-.013.0022-.027.0043-.04.0064 2.588-3.2658 5.608-7.542 7.162-11.4013 1.731-4.3016 2.365-10.1359 2.565-14.9212h.044c.094-1.2507.139-2.5071.139-3.7745 0-1.5848-.072-3.1457-.216-4.6915-.006-.1072-.01-.1632-.01-.1632l-.006-.0011c-.006-.064-.012-.1279-.019-.1917l-9.375-4.1637c-1.896-.8394-2.752-3.0685-1.912-4.9697l4.871-11.0012c-7.16-12.5255-19.4972-21.706-34.0954-24.6358l-.4324-.3133-.0803.2131c-.0614-.0116-.1229-.0232-.1844-.0347l-7.1119 6.7986-.0055.0056c-1.5014 1.4342-3.8813 1.3731-5.3159-.1278l-6.0438-6.3382-.1669-.5166c-.6392.1781-1.267.3606-1.8834.5473-10.4907 2.3517-19.7608 7.9495-26.6924 15.6854h.1051c-5.1922 5.8289-6.3612 10.6347-6.3612 10.6347l3.1514 6.1363.0414.0538 1.1894 2.6927c.8452 1.9011-.0111 4.1247-1.9128 4.9697l-7.506 3.3366-1.5981.5566s-.0256 1.0616-.0028 2.7709c-.0485.9093-.0735 1.8255-.0735 2.7472-.0044 3.782.4135 7.5462 1.2451 11.2293.3365 1.8894.7675 3.7081 1.3192 5.3104 3.5973 10.4484 11.6106 18.9064 11.6106 18.9064l.1796-.085 8.5103-1.83c2.0351-.433 4.0369.862 4.4706 2.897l2.0686 9.667c6.5113 3.024 13.7622 4.714 21.4135 4.714 7.4789 0 14.5796-1.612 20.9742-4.514l2.074-9.667zm-57.8792 7.144c.4782 2.234 2.6746 3.657 4.9043 3.174 2.2242-.478 3.6422-2.68 3.1695-4.909-.4782-2.229-2.6746-3.652-4.9044-3.174-2.2297.478-3.6476 2.674-3.1694 4.909zm-12.956-55.2453c2.0852-.9228 3.0249-3.3688 2.1019-5.4534-.9231-2.0901-3.3641-3.0296-5.4438-2.1013-2.0852.9284-3.0249 3.3688-2.1018 5.4534.923 2.0846 3.3585 3.0296 5.4437 2.1013zm50.5617-43.9936c-1.5792-1.6454-4.1927-1.7121-5.8386-.1334-1.6459 1.5732-1.707 4.1859-.139 5.8425 1.5792 1.651 4.1926 1.7121 5.8386.1334 1.6514-1.5732 1.7126-4.1915.139-5.8425zm47.9202 36.6335c-2.085-.9172-4.515.0222-5.438 2.1069-.923 2.0846.017 4.5305 2.102 5.4533 0 .0055.005.0055.005.0055 2.086.9173 4.521-.0222 5.439-2.1068.923-2.0846-.017-4.5305-2.102-5.4533 0-.0056-.006-.0056-.006-.0056z" fill="#000" fill-rule="evenodd"/></svg>